HIERARCHY
ROOT mixamorig:Hips
{
	OFFSET -0.000008 104.274872 1.554316
	CHANNELS 6 Xposition Yposition Zposition Xrotation Yrotation Zrotation
	JOINT mixamorig:Spine
	{
		OFFSET -0.000005 10.181595 0.131519
		CHANNELS 6 Xposition Yposition Zposition Xrotation Yrotation Zrotation
		JOINT mixamorig:Spine1
		{
			OFFSET -0.000000 9.893959 -1.470707
			CHANNELS 6 Xposition Yposition Zposition Xrotation Yrotation Zrotation
			JOINT mixamorig:Spine2
			{
				OFFSET -0.000000 9.220757 -1.370641
				CHANNELS 6 Xposition Yposition Zposition Xrotation Yrotation Zrotation
				JOINT mixamorig:Neck
				{
					OFFSET 0.000001 16.740417 -2.049036
					CHANNELS 6 Xposition Yposition Zposition Xrotation Yrotation Zrotation
					JOINT mixamorig:Head
					{
						OFFSET 0.000000 9.617874 1.685006
						CHANNELS 6 Xposition Yposition Zposition Xrotation Yrotation Zrotation
						JOINT mixamorig:HeadTop_End
						{
							OFFSET 0.000002 22.037354 7.501101
							CHANNELS 6 Xposition Yposition Zposition Xrotation Yrotation Zrotation
							End Site
							{
								OFFSET 0.000168 2310.654297 -282.823242
							}
						}
					}
				}
				JOINT mixamorig:RightShoulder
				{
					OFFSET -4.569970 11.014908 -2.160885
					CHANNELS 6 Xposition Yposition Zposition Xrotation Yrotation Zrotation
					JOINT mixamorig:RightArm
					{
						OFFSET -10.592851 -0.524811 -2.232101
						CHANNELS 6 Xposition Yposition Zposition Xrotation Yrotation Zrotation
						JOINT mixamorig:RightForeArm
						{
							OFFSET -27.841511 0.000031 -0.000004
							CHANNELS 6 Xposition Yposition Zposition Xrotation Yrotation Zrotation
							JOINT mixamorig:RightHand
							{
								OFFSET -28.328831 -0.000015 0.000015
								CHANNELS 6 Xposition Yposition Zposition Xrotation Yrotation Zrotation
								JOINT mixamorig:RightHandThumb1
								{
									OFFSET -2.464806 -1.573990 2.681852
									CHANNELS 6 Xposition Yposition Zposition Xrotation Yrotation Zrotation
									JOINT mixamorig:RightHandThumb2
									{
										OFFSET -3.215179 -1.872803 1.924282
										CHANNELS 6 Xposition Yposition Zposition Xrotation Yrotation Zrotation
										JOINT mixamorig:RightHandThumb3
										{
											OFFSET -2.654831 -1.527969 1.512609
											CHANNELS 6 Xposition Yposition Zposition Xrotation Yrotation Zrotation
											JOINT mixamorig:RightHandThumb4
											{
												OFFSET -2.018814 -1.152008 1.108052
												CHANNELS 6 Xposition Yposition Zposition Xrotation Yrotation Zrotation
												End Site
												{
													OFFSET -188.809540 -114.533607 132.431396
												}
											}
										}
									}
								}
								JOINT mixamorig:RightHandIndex1
								{
									OFFSET -9.108284 -0.517868 2.259835
									CHANNELS 6 Xposition Yposition Zposition Xrotation Yrotation Zrotation
									JOINT mixamorig:RightHandIndex2
									{
										OFFSET -3.699989 0.000000 0.001215
										CHANNELS 6 Xposition Yposition Zposition Xrotation Yrotation Zrotation
										JOINT mixamorig:RightHandIndex3
										{
											OFFSET -2.850006 0.000031 -0.000522
											CHANNELS 6 Xposition Yposition Zposition Xrotation Yrotation Zrotation
											JOINT mixamorig:RightHandIndex4
											{
												OFFSET -2.772186 -0.000015 -0.000020
												CHANNELS 6 Xposition Yposition Zposition Xrotation Yrotation Zrotation
												End Site
												{
													OFFSET -277.218445 0.000000 -0.050231
												}
											}
										}
									}
								}
								JOINT mixamorig:RightHandMiddle1
								{
									OFFSET -9.532516 -0.000031 -0.000023
									CHANNELS 6 Xposition Yposition Zposition Xrotation Yrotation Zrotation
									JOINT mixamorig:RightHandMiddle2
									{
										OFFSET -3.700005 -0.000015 0.003713
										CHANNELS 6 Xposition Yposition Zposition Xrotation Yrotation Zrotation
										JOINT mixamorig:RightHandMiddle3
										{
											OFFSET -2.949974 0.000015 -0.002054
											CHANNELS 6 Xposition Yposition Zposition Xrotation Yrotation Zrotation
											JOINT mixamorig:RightHandMiddle4
											{
												OFFSET -2.946640 0.000000 -0.000156
												CHANNELS 6 Xposition Yposition Zposition Xrotation Yrotation Zrotation
												End Site
												{
													OFFSET -294.664337 0.000000 -0.113670
												}
											}
										}
									}
								}
								JOINT mixamorig:RightHandRing1
								{
									OFFSET -9.103600 -0.043076 -1.865134
									CHANNELS 6 Xposition Yposition Zposition Xrotation Yrotation Zrotation
									JOINT mixamorig:RightHandRing2
									{
										OFFSET -3.379288 0.000000 -0.001055
										CHANNELS 6 Xposition Yposition Zposition Xrotation Yrotation Zrotation
										JOINT mixamorig:RightHandRing3
										{
											OFFSET -2.889687 -0.000015 0.000379
											CHANNELS 6 Xposition Yposition Zposition Xrotation Yrotation Zrotation
											JOINT mixamorig:RightHandRing4
											{
												OFFSET -2.638809 -0.000015 0.000941
												CHANNELS 6 Xposition Yposition Zposition Xrotation Yrotation Zrotation
												End Site
												{
													OFFSET -263.880371 0.000000 0.516020
												}
											}
										}
									}
								}
								JOINT mixamorig:RightHandPinky1
								{
									OFFSET -8.076683 -0.486710 -3.806280
									CHANNELS 6 Xposition Yposition Zposition Xrotation Yrotation Zrotation
									JOINT mixamorig:RightHandPinky2
									{
										OFFSET -3.600014 -0.000015 -0.003747
										CHANNELS 6 Xposition Yposition Zposition Xrotation Yrotation Zrotation
										JOINT mixamorig:RightHandPinky3
										{
											OFFSET -2.099983 0.000000 -0.005739
											CHANNELS 6 Xposition Yposition Zposition Xrotation Yrotation Zrotation
											JOINT mixamorig:RightHandPinky4
											{
												OFFSET -2.115768 -0.000031 -0.003680
												CHANNELS 6 Xposition Yposition Zposition Xrotation Yrotation Zrotation
												End Site
												{
													OFFSET -211.577087 0.000000 -0.350686
												}
											}
										}
									}
								}
							}
						}
					}
				}
				JOINT mixamorig:LeftShoulder
				{
					OFFSET 4.570447 11.014725 -2.160855
					CHANNELS 6 Xposition Yposition Zposition Xrotation Yrotation Zrotation
					JOINT mixamorig:LeftArm
					{
						OFFSET 10.592371 -0.524597 -2.232119
						CHANNELS 6 Xposition Yposition Zposition Xrotation Yrotation Zrotation
						JOINT mixamorig:LeftForeArm
						{
							OFFSET 27.841532 -0.000031 0.000026
							CHANNELS 6 Xposition Yposition Zposition Xrotation Yrotation Zrotation
							JOINT mixamorig:LeftHand
							{
								OFFSET 28.328846 -0.000061 0.000022
								CHANNELS 6 Xposition Yposition Zposition Xrotation Yrotation Zrotation
								JOINT mixamorig:LeftHandThumb1
								{
									OFFSET 2.466141 -1.576172 2.681732
									CHANNELS 6 Xposition Yposition Zposition Xrotation Yrotation Zrotation
									JOINT mixamorig:LeftHandThumb2
									{
										OFFSET 3.217812 -1.872070 1.916482
										CHANNELS 6 Xposition Yposition Zposition Xrotation Yrotation Zrotation
										JOINT mixamorig:LeftHandThumb3
										{
											OFFSET 2.656029 -1.528778 1.514513
											CHANNELS 6 Xposition Yposition Zposition Xrotation Yrotation Zrotation
											JOINT mixamorig:LeftHandThumb4
											{
												OFFSET 2.020889 -1.154053 1.115139
												CHANNELS 6 Xposition Yposition Zposition Xrotation Yrotation Zrotation
												End Site
												{
													OFFSET 190.885437 -115.081749 130.048782
												}
											}
										}
									}
								}
								JOINT mixamorig:LeftHandIndex1
								{
									OFFSET 9.109314 -0.518021 2.259871
									CHANNELS 6 Xposition Yposition Zposition Xrotation Yrotation Zrotation
									JOINT mixamorig:LeftHandIndex2
									{
										OFFSET 3.699989 0.000000 -0.000322
										CHANNELS 6 Xposition Yposition Zposition Xrotation Yrotation Zrotation
										JOINT mixamorig:LeftHandIndex3
										{
											OFFSET 2.850006 0.000000 0.000352
											CHANNELS 6 Xposition Yposition Zposition Xrotation Yrotation Zrotation
											JOINT mixamorig:LeftHandIndex4
											{
												OFFSET 2.774864 -0.000031 -0.000027
												CHANNELS 6 Xposition Yposition Zposition Xrotation Yrotation Zrotation
												End Site
												{
													OFFSET 277.486267 0.000000 -0.009857
												}
											}
										}
									}
								}
								JOINT mixamorig:LeftHandMiddle1
								{
									OFFSET 9.533394 0.000061 0.000044
									CHANNELS 6 Xposition Yposition Zposition Xrotation Yrotation Zrotation
									JOINT mixamorig:LeftHandMiddle2
									{
										OFFSET 3.699989 -0.000015 -0.000231
										CHANNELS 6 Xposition Yposition Zposition Xrotation Yrotation Zrotation
										JOINT mixamorig:LeftHandMiddle3
										{
											OFFSET 2.949997 -0.000015 -0.000059
											CHANNELS 6 Xposition Yposition Zposition Xrotation Yrotation Zrotation
											JOINT mixamorig:LeftHandMiddle4
											{
												OFFSET 2.952896 0.000031 0.000063
												CHANNELS 6 Xposition Yposition Zposition Xrotation Yrotation Zrotation
												End Site
												{
													OFFSET 295.289337 0.000000 0.022810
												}
											}
										}
									}
								}
								JOINT mixamorig:LeftHandRing1
								{
									OFFSET 9.104523 -0.042999 -1.865074
									CHANNELS 6 Xposition Yposition Zposition Xrotation Yrotation Zrotation
									JOINT mixamorig:LeftHandRing2
									{
										OFFSET 3.150009 -0.000031 0.000043
										CHANNELS 6 Xposition Yposition Zposition Xrotation Yrotation Zrotation
										JOINT mixamorig:LeftHandRing3
										{
											OFFSET 2.949982 -0.000015 0.000040
											CHANNELS 6 Xposition Yposition Zposition Xrotation Yrotation Zrotation
											JOINT mixamorig:LeftHandRing4
											{
												OFFSET 2.644348 0.000000 0.000057
												CHANNELS 6 Xposition Yposition Zposition Xrotation Yrotation Zrotation
												End Site
												{
													OFFSET 264.434631 0.000000 0.012105
												}
											}
										}
									}
								}
								JOINT mixamorig:LeftHandPinky1
								{
									OFFSET 8.077789 -0.486847 -3.806259
									CHANNELS 6 Xposition Yposition Zposition Xrotation Yrotation Zrotation
									JOINT mixamorig:LeftHandPinky2
									{
										OFFSET 3.599953 0.000031 0.014727
										CHANNELS 6 Xposition Yposition Zposition Xrotation Yrotation Zrotation
										JOINT mixamorig:LeftHandPinky3
										{
											OFFSET 2.100021 0.000015 0.007705
											CHANNELS 6 Xposition Yposition Zposition Xrotation Yrotation Zrotation
											JOINT mixamorig:LeftHandPinky4
											{
												OFFSET 2.125504 0.000031 0.007517
												CHANNELS 6 Xposition Yposition Zposition Xrotation Yrotation Zrotation
												End Site
												{
													OFFSET 212.550781 0.000000 0.625752
												}
											}
										}
									}
								}
							}
						}
					}
				}
			}
		}
	}
	JOINT mixamorig:RightUpLeg
	{
		OFFSET -8.207787 -6.751648 -1.599560
		CHANNELS 6 Xposition Yposition Zposition Xrotation Yrotation Zrotation
		JOINT mixamorig:RightLeg
		{
			OFFSET -0.000002 -44.370117 0.345942
			CHANNELS 6 Xposition Yposition Zposition Xrotation Yrotation Zrotation
			JOINT mixamorig:RightFoot
			{
				OFFSET 0.000003 -44.423679 -3.043532
				CHANNELS 6 Xposition Yposition Zposition Xrotation Yrotation Zrotation
				JOINT mixamorig:RightToeBase
				{
					OFFSET -0.000002 -8.728671 10.710558
					CHANNELS 6 Xposition Yposition Zposition Xrotation Yrotation Zrotation
					JOINT mixamorig:RightToe_End
					{
						OFFSET -0.000001 -0.000679 9.278119
						CHANNELS 6 Xposition Yposition Zposition Xrotation Yrotation Zrotation
						End Site
						{
							OFFSET 0.000000 -0.067690 927.812134
						}
					}
				}
			}
		}
	}
	JOINT mixamorig:LeftUpLeg
	{
		OFFSET 8.207793 -6.751686 -1.599556
		CHANNELS 6 Xposition Yposition Zposition Xrotation Yrotation Zrotation
		JOINT mixamorig:LeftLeg
		{
			OFFSET -0.000004 -44.370014 0.346954
			CHANNELS 6 Xposition Yposition Zposition Xrotation Yrotation Zrotation
			JOINT mixamorig:LeftFoot
			{
				OFFSET -0.000001 -44.423672 -3.044401
				CHANNELS 6 Xposition Yposition Zposition Xrotation Yrotation Zrotation
				JOINT mixamorig:LeftToeBase
				{
					OFFSET -0.000002 -8.728669 10.710558
					CHANNELS 6 Xposition Yposition Zposition Xrotation Yrotation Zrotation
					JOINT mixamorig:LeftToe_End
					{
						OFFSET -0.000003 -0.000679 9.278133
						CHANNELS 6 Xposition Yposition Zposition Xrotation Yrotation Zrotation
						End Site
						{
							OFFSET 0.000000 -0.068021 927.813477
						}
					}
				}
			}
		}
	}
}
MOTION
Frames: 3
Frame Time: 0.033333
0.000006 104.270477 1.554256 0.000010 0.000003 -0.000113 -0.000005 10.181587 0.131522 0.000001 -0.000003 0.000084 -0.000000 9.893967 -1.470711 0.000001 0.000000 -0.000000 -0.000000 9.220802 -1.370642 0.000000 -0.000000 -0.000000 0.000001 16.740433 -2.049030 0.000000 -0.000000 -0.000000 0.000000 9.617859 1.685014 0.000000 0.000000 0.000000 0.000002 22.037384 7.501101 0.000000 -0.000000 0.000000 -4.569968 11.014880 -2.160881 0.000008 0.000001 -0.000038 -10.592873 -0.524683 -2.232019 70.780977 9.549373 -6.791794 -27.841528 0.000010 0.000518 -56.223331 117.629709 82.863520 -28.328827 0.000022 0.000024 -0.000323 -0.000045 0.000006 -2.464435 -1.573903 2.682369 -32.470911 -153.192346 21.764886 -3.215266 -1.872585 1.924668 155.868482 32.108975 5.792086 -2.654957 -1.527854 1.513067 150.217293 26.792204 -32.913561 -2.018837 -1.152002 1.108059 0.000001 0.000001 -0.000000 -9.108389 -0.517568 2.260188 110.713323 16.085978 -23.182702 -3.700073 0.000317 0.001556 107.359878 12.564838 -17.002947 -2.850081 0.000370 -0.000220 105.910983 8.608590 -11.388199 -2.772166 -0.000010 -0.000023 -0.000000 0.000000 -0.000005 -9.532593 0.000285 0.000282 105.492709 13.467376 -17.831153 -3.700065 0.000332 0.004007 104.456405 10.116055 -12.913022 -2.950039 0.000356 -0.001780 104.848321 8.231982 -10.677267 -2.946620 0.000005 -0.000150 -0.000000 0.000000 0.000001 -9.103703 -0.042738 -1.864815 106.196485 13.020420 -17.226290 -3.379320 0.000324 -0.000759 106.567945 9.096683 -12.199783 -2.889751 0.000351 0.000710 109.403409 6.099677 -8.671123 -2.638798 -0.000001 0.000939 -0.000000 0.000000 -0.000001 -8.076750 -0.486375 -3.805972 101.266529 14.080710 -16.943194 -3.600039 0.000293 -0.003447 103.372222 7.864215 -9.497646 -2.100013 0.000329 -0.005424 105.108401 3.653145 -4.490653 -2.115772 -0.000056 -0.003684 -0.000000 -0.000000 -0.000002 4.570446 11.014691 -2.160851 -0.000018 0.000010 -0.000021 10.592362 -0.524516 -2.232294 71.781395 5.687260 -4.117020 27.841843 0.000137 -0.000216 107.432230 -62.933520 79.631543 28.328835 -0.000027 0.000022 0.000021 -0.000088 -0.000001 2.466103 -1.576166 2.681894 -15.904633 152.316210 -51.033510 3.217810 -1.871771 1.916377 159.812684 -30.249617 6.138320 2.656104 -1.528623 1.514461 140.759626 -27.616796 45.895876 2.020891 -1.154068 1.115149 0.000005 0.000002 0.000002 9.109366 -0.517846 2.259728 91.247789 -16.013250 16.348490 3.700057 0.000178 -0.000468 88.375674 -12.752247 12.414963 2.850043 0.000206 0.000212 86.688215 -11.485474 10.842816 2.774880 -0.000049 -0.000024 -0.000001 0.000001 0.000003 9.533431 0.000216 -0.000095 89.504711 -15.710118 15.567813 3.700068 0.000183 -0.000393 89.751186 -12.945591 12.887282 2.950064 0.000165 -0.000197 88.668191 -16.164756 15.801048 2.952862 -0.000013 0.000062 0.000002 0.000000 0.000001 9.104570 -0.042836 -1.865229 88.522776 -14.780217 14.409852 3.150054 0.000201 -0.000101 93.618234 -14.016939 14.923270 2.950028 0.000190 -0.000066 95.062628 -15.492952 16.908299 2.644325 0.000046 0.000061 -0.000001 -0.000001 -0.000000 8.077826 -0.486733 -3.806380 74.284161 -17.648878 13.870132 3.600013 0.000170 0.014575 74.301776 -14.632051 11.508870 2.100035 0.000174 0.007546 77.999879 -12.895819 10.855170 2.125499 -0.000025 0.007510 0.000000 -0.000001 -0.000001 -8.207786 -6.751667 -1.599560 -0.077001 -0.000003 0.000080 -0.000002 -44.370110 0.345938 0.153719 -0.000000 -0.000000 0.000000 -44.423679 -3.043532 -0.076700 0.000000 -0.000002 -0.000006 -8.728667 10.710559 -0.000009 -0.000000 -0.000000 -0.000001 -0.000679 9.278123 0.000000 -0.000000 -0.000000 8.207792 -6.751710 -1.599556 -0.074518 -0.000003 0.000081 -0.000002 -44.370014 0.346960 0.148822 0.000002 0.000000 -0.000001 -44.423664 -3.044403 -0.074314 0.000000 -0.000002 -0.000004 -8.728671 10.710558 0.000007 -0.000000 -0.000000 0.000000 -0.000680 9.278137 -0.000000 0.000000 -0.000001 
0.000006 104.270477 1.554256 0.000010 0.000003 -0.000113 -0.000005 10.181587 0.131522 0.000001 -0.000003 0.000084 -0.000000 9.893967 -1.470711 0.000001 0.000000 -0.000000 -0.000000 9.220802 -1.370642 0.000000 -0.000000 -0.000000 0.000001 16.740433 -2.049030 0.000000 -0.000000 -0.000000 0.000000 9.617859 1.685014 0.000000 0.000000 0.000000 0.000002 22.037384 7.501101 0.000000 -0.000000 0.000000 -4.569968 11.014880 -2.160881 0.000008 0.000001 -0.000038 -10.592884 -0.524731 -2.231967 69.682102 18.969300 -13.266537 -27.841520 -0.000011 0.000569 -52.265601 113.556184 73.673528 -28.328835 0.000006 0.000027 -0.000321 -0.000047 0.000006 -2.464400 -1.573813 2.682341 -43.574807 -157.418034 -0.382416 -3.215243 -1.872504 1.924627 150.141628 33.342784 21.385882 -2.654966 -1.527860 1.513051 150.981741 28.519055 -17.915602 -2.018819 -1.152014 1.108065 -0.000003 -0.000001 0.000002 -9.108379 -0.517577 2.260195 114.933943 16.006972 -24.933541 -3.700058 0.000300 0.001579 111.512134 13.149613 -19.185651 -2.850079 0.000356 -0.000169 112.962129 9.799349 -14.747376 -2.772173 -0.000014 -0.000025 -0.000001 0.000001 0.000001 -9.532573 0.000277 0.000309 110.115019 12.052928 -17.379567 -3.700058 0.000348 0.004019 107.352009 8.697567 -11.686948 -2.950051 0.000350 -0.001749 107.602390 8.524599 -11.619979 -2.946621 -0.000014 -0.000157 -0.000001 -0.000000 -0.000001 -9.103666 -0.042737 -1.864790 110.706022 11.379666 -16.347226 -3.379302 0.000339 -0.000751 108.697707 5.040403 -7.045617 -2.889736 0.000356 0.000696 110.727441 4.553770 -6.652270 -2.638817 -0.000017 0.000938 0.000000 0.000000 0.000000 -8.076722 -0.486361 -3.805958 107.365936 11.588371 -15.526938 -3.600000 0.000304 -0.003442 107.991274 2.805200 -3.408894 -2.100006 0.000341 -0.005422 108.085271 1.357846 -1.588503 -2.115780 -0.000038 -0.003676 -0.000001 -0.000000 -0.000001 4.570446 11.014691 -2.160851 -0.000018 0.000010 -0.000021 10.592363 -0.524523 -2.232283 71.972777 6.696227 -4.865208 27.841845 0.000122 -0.000213 107.983009 -64.697778 82.143509 28.328825 -0.000028 0.000021 0.000022 -0.000089 -0.000000 2.466216 -1.576090 2.681848 1.532391 160.504651 -84.848018 3.217833 -1.871756 1.916387 164.257416 -28.429995 14.663356 2.656093 -1.528652 1.514459 142.566511 -26.834456 50.463114 2.020887 -1.154082 1.115140 -0.000001 0.000002 0.000004 9.109380 -0.517843 2.259729 93.468352 -17.499182 18.560103 3.700039 0.000195 -0.000471 90.161830 -10.754360 10.801117 2.850032 0.000224 0.000206 88.298295 -8.127092 7.888793 2.774888 -0.000031 -0.000025 0.000001 0.000003 -0.000000 9.533466 0.000237 -0.000086 90.460644 -16.441782 16.563711 3.700045 0.000204 -0.000388 92.573843 -9.724826 10.166795 2.950034 0.000199 -0.000193 93.343325 -10.380924 11.004373 2.952862 -0.000030 0.000065 0.000000 0.000002 -0.000002 9.104582 -0.042840 -1.865226 89.096088 -16.291355 16.041613 3.150053 0.000212 -0.000096 95.048318 -11.992886 13.091804 2.950010 0.000206 -0.000076 96.048340 -10.988767 12.207760 2.644328 0.000029 0.000059 -0.000001 -0.000002 -0.000001 8.077843 -0.486728 -3.806399 77.559250 -17.737465 14.773853 3.600001 0.000176 0.014575 77.994039 -16.295937 13.655000 2.100045 0.000175 0.007534 79.585036 -12.797139 11.080390 2.125517 -0.000015 0.007519 -0.000003 0.000003 0.000001 -8.207786 -6.751667 -1.599560 -0.077001 -0.000003 0.000080 -0.000002 -44.370110 0.345938 0.153719 -0.000000 -0.000000 0.000000 -44.423679 -3.043532 -0.076700 0.000000 -0.000002 -0.000006 -8.728667 10.710559 -0.000009 -0.000000 -0.000000 -0.000001 -0.000679 9.278123 0.000000 -0.000000 -0.000000 8.207792 -6.751710 -1.599556 -0.074518 -0.000003 0.000081 -0.000002 -44.370014 0.346960 0.148822 0.000002 0.000000 -0.000001 -44.423664 -3.044403 -0.074314 0.000000 -0.000002 -0.000004 -8.728671 10.710558 0.000007 -0.000000 -0.000000 0.000000 -0.000680 9.278137 -0.000000 0.000000 -0.000001 
0.000006 104.270477 1.554256 0.000010 0.000003 -0.000113 -0.000005 10.181587 0.131522 0.000001 -0.000003 0.000084 -0.000000 9.893967 -1.470711 0.000001 0.000000 -0.000000 -0.000000 9.220802 -1.370642 0.000000 -0.000000 -0.000000 0.000001 16.740433 -2.049030 0.000000 -0.000000 -0.000000 0.000000 9.617859 1.685014 0.000000 0.000000 0.000000 0.000002 22.037384 7.501101 0.000000 -0.000000 0.000000 -4.569968 11.014880 -2.160881 0.000008 0.000001 -0.000038 -10.592874 -0.524765 -2.231889 69.051293 32.363704 -22.578985 -27.841509 0.000011 0.000563 -46.092405 109.498123 62.091105 -28.328806 0.000018 0.000030 -0.000322 -0.000044 0.000007 -2.464362 -1.573798 2.682311 -47.508221 -156.943663 -9.467213 -3.215194 -1.872461 1.924611 142.335350 33.308702 46.898326 -2.654966 -1.527849 1.513043 153.234748 28.801402 -15.148946 -2.018826 -1.152013 1.108073 -0.000003 -0.000001 0.000002 -9.108373 -0.517600 2.260234 119.897373 17.977606 -30.664913 -3.700069 0.000286 0.001600 115.240687 16.652305 -25.953440 -2.850096 0.000328 -0.000153 117.940838 12.752331 -21.045121 -2.772156 0.000001 -0.000016 0.000000 0.000001 -0.000000 -9.532556 0.000254 0.000355 118.241967 13.315777 -22.322575 -3.700066 0.000324 0.004058 113.118260 11.113476 -16.618750 -2.950058 0.000330 -0.001713 113.763522 10.541998 -16.088338 -2.946622 -0.000015 -0.000151 0.000007 0.000003 -0.000001 -9.103667 -0.042748 -1.864764 116.280842 11.787576 -18.794106 -3.379308 0.000321 -0.000725 112.331818 6.674558 -9.968752 -2.889767 0.000350 0.000742 116.450545 6.082024 -9.877351 -2.638794 -0.000001 0.000936 0.000004 0.000001 0.000000 -8.076722 -0.486392 -3.805915 112.521219 11.671548 -17.186942 -3.600014 0.000295 -0.003405 115.783728 4.407249 -6.481321 -2.100016 0.000330 -0.005362 118.531922 2.890032 -4.503294 -2.115772 -0.000038 -0.003673 -0.000006 0.000001 -0.000002 4.570446 11.014691 -2.160851 -0.000018 0.000010 -0.000021 10.592374 -0.524503 -2.232330 71.747135 -1.846102 1.335198 27.841846 0.000095 -0.000211 107.805732 -67.882716 85.416543 28.328852 -0.000028 0.000022 0.000022 -0.000088 0.000001 2.466260 -1.575940 2.681812 22.534109 184.118800 -132.584244 3.217880 -1.871872 1.916448 169.628827 -15.520765 54.743512 2.656105 -1.528697 1.514498 137.568534 -28.040416 64.933919 2.020891 -1.154086 1.115151 0.000003 -0.000001 0.000002 9.109404 -0.517864 2.259753 89.160531 -21.978435 21.653535 3.700054 0.000167 -0.000463 87.725604 -12.766373 12.289488 2.850036 0.000235 0.000210 87.070022 -9.324101 8.859782 2.774885 -0.000031 -0.000019 -0.000002 -0.000001 0.000001 9.533480 0.000207 -0.000090 90.655004 -18.523369 18.723440 3.700039 0.000217 -0.000374 95.691155 -8.685744 9.587499 2.950032 0.000228 -0.000194 97.596539 -8.893978 10.155894 2.952844 -0.000013 0.000058 0.000002 -0.000001 -0.000000 9.104603 -0.042843 -1.865216 89.617150 -17.853771 17.738732 3.150067 0.000221 -0.000086 96.500915 -11.614026 13.003312 2.950020 0.000217 -0.000094 97.629283 -9.614604 10.982418 2.644329 0.000047 0.000056 0.000004 0.000000 -0.000001 8.077851 -0.486719 -3.806413 79.845690 -19.044599 16.488015 3.600010 0.000171 0.014572 80.699197 -16.469029 14.468120 2.100044 0.000182 0.007552 82.437808 -12.881061 11.723060 2.125498 -0.000001 0.007522 0.000001 0.000004 -0.000001 -8.207786 -6.751667 -1.599560 -0.077001 -0.000003 0.000080 -0.000002 -44.370110 0.345938 0.153719 -0.000000 -0.000000 0.000000 -44.423679 -3.043532 -0.076700 0.000000 -0.000002 -0.000006 -8.728667 10.710559 -0.000009 -0.000000 -0.000000 -0.000001 -0.000679 9.278123 0.000000 -0.000000 -0.000000 8.207792 -6.751710 -1.599556 -0.074518 -0.000003 0.000081 -0.000002 -44.370014 0.346960 0.148822 0.000002 0.000000 -0.000001 -44.423664 -3.044403 -0.074314 0.000000 -0.000002 -0.000004 -8.728671 10.710558 0.000007 -0.000000 -0.000000 0.000000 -0.000680 9.278137 -0.000000 0.000000 -0.000001 
